<svg xmlns="http://www.w3.org/2000/svg" width="4100.87" height="2342.68" viewBox="0 0 4100.87 2342.68"><g id="Layer_2" data-name="Layer 2"><g id="Слой_1" data-name="Слой 1"><g id="PLANTS"><path d="M4000.79,2272.49c41.14-237.88-172.46-433.44-404.85-425.15h-12.36c-92.33,0-179-41.82-233-112.41l-33.67-44c-87.1-113.85-222.58-181.3-371.48-181.3-82.21,0-141.28,18.84-186.65,48.23-82.88,53.69-194.15,239.36-307.05,244.1-166.49,7-275.52-234.21-692.28,189.47" fill="none" stroke="#59221d" stroke-linecap="round" stroke-miterlimit="10" stroke-width="5"/><path d="M136.28,2274.9c-212.83,0-174-327.63,132.82-190.51,262.18,117.18,98.12-387.24,433.27-269.41,82.29,28.93,277.57,176.81,387.21,177.59,44.33.31,355.59-167,620-28,252.46,132.7,491.27,310.32,491.27,310.32" fill="none" stroke="#59221d" stroke-linecap="round" stroke-miterlimit="10" stroke-width="5"/><path d="M4039.06,2274.79H3557c10.49-99.43,114.38-177.51,241-177.51S4028.57,2175.36,4039.06,2274.79Z" fill="#7ebad2"/><path d="M3743,2274.79l-58-77.22h-50.32l-66.93,35.65a2.45,2.45,0,0,1-.62.23c.94-2.41,1.93-4.79,3-7.16l53.93-28.72h-37.79c1.16-1.69,2.35-3.35,3.57-5h91.43l-37.87-50.42c1.38-.93,2.78-1.85,4.2-2.74l102,135.38Z" fill="#fff"/><path d="M3924.57,2273l82.85-78.84q1.48,2.06,2.9,4.14l-80.4,76.51Z" fill="#fff"/><path d="M3809.3,2273.7V2167.19l-43.73-67.33a2.35,2.35,0,0,1-.33-.81c1.8-.2,3.61-.38,5.42-.54l38.64,59.5v-60.52c1.67.06,3.34.13,5,.22v142.08l92-122c1.6.64,3.19,1.29,4.77,2l-53,70.36,109-37.59q2.32,1.83,4.59,3.7l-.14.06-118.84,41-38.34,50.87v25.59Z" fill="#fff"/><path d="M3487.1,2188.28H3508a0,0,0,0,1,0,0v20.9a39.77,39.77,0,0,1-39.77,39.77h-20.9a0,0,0,0,1,0,0V2228A39.77,39.77,0,0,1,3487.1,2188.28Z" transform="translate(-498.34 3317.58) rotate(-47.99)" fill="#a74602"/><path d="M3461.63,2186.29h16a0,0,0,0,1,0,0v16a57.09,57.09,0,0,1-57.09,57.09h-16a0,0,0,0,1,0,0v-16A57.09,57.09,0,0,1,3461.63,2186.29Z" transform="translate(1218.25 5663.93) rotate(-90)" fill="#fff" stroke="#59221d" stroke-miterlimit="10" stroke-width="5"/><path d="M278.26,2023.79h3.61a41.33,41.33,0,0,1,41.33,41.33v3.61a0,0,0,0,1,0,0h-3.61a41.33,41.33,0,0,1-41.33-41.33v-3.61A0,0,0,0,1,278.26,2023.79Z" transform="translate(478.95 4106.81) rotate(-176.58)" fill="#ffc200"/><path d="M322.8,2002.18h4.35A49.79,49.79,0,0,1,376.94,2052v4.35a0,0,0,0,1,0,0h-4.35a49.79,49.79,0,0,1-49.79-49.79v-4.35A0,0,0,0,1,322.8,2002.18Z" transform="translate(-1248.91 3327.02) rotate(-119.28)" fill="none" stroke="#59221d" stroke-linecap="round" stroke-miterlimit="10" stroke-width="5"/><path d="M3507.34,1756.7h14.92a0,0,0,0,1,0,0v14.92a39.77,39.77,0,0,1-39.77,39.77h-14.92a0,0,0,0,1,0,0v-14.92A39.77,39.77,0,0,1,3507.34,1756.7Z" transform="matrix(0.14, -0.99, 0.99, 0.14, 1235.63, 4992.3)" fill="#ffc200"/><path d="M3581.33,1734.94h40.28a0,0,0,0,1,0,0v40.28a39.77,39.77,0,0,1-39.77,39.77h-40.28a0,0,0,0,1,0,0v-40.28A39.77,39.77,0,0,1,3581.33,1734.94Z" fill="none" stroke="#59221d" stroke-linecap="round" stroke-miterlimit="10" stroke-width="5"/><line x1="3541.56" y1="1814.98" x2="3621.61" y2="1734.94" fill="none" stroke="#59221d" stroke-linecap="round" stroke-miterlimit="10" stroke-width="5"/><line x1="3589.81" y1="1770.22" x2="3621.61" y2="1770.22" fill="none" stroke="#59221d" stroke-linecap="round" stroke-miterlimit="10" stroke-width="5"/><line x1="3563.36" y1="1740.67" x2="3563.36" y2="1792.84" fill="none" stroke="#59221d" stroke-linecap="round" stroke-miterlimit="10" stroke-width="5"/><path d="M198.87,2162.67h21.88a0,0,0,0,1,0,0v21.88A39.77,39.77,0,0,1,181,2224.31H159.1a0,0,0,0,1,0,0v-21.88A39.77,39.77,0,0,1,198.87,2162.67Z" fill="none" stroke="#59221d" stroke-linecap="round" stroke-miterlimit="10" stroke-width="5"/><line x1="159.1" y1="2224.31" x2="220.74" y2="2162.67" fill="none" stroke="#59221d" stroke-linecap="round" stroke-miterlimit="10" stroke-width="5"/><line x1="194.4" y1="2189.84" x2="219.65" y2="2189.84" fill="none" stroke="#59221d" stroke-linecap="round" stroke-miterlimit="10" stroke-width="5"/><line x1="175.88" y1="2171.43" x2="175.88" y2="2207.26" fill="none" stroke="#59221d" stroke-linecap="round" stroke-miterlimit="10" stroke-width="5"/></g><g id="MOUNTAIN"><path d="M1227.83,479.35,1722.55,141c56.85-38.88,128.87-34.1,181.35,12l919.69,808.68H126.47L998.13,438c44.35-26.65,97.1-28.25,142.64-4.33Z" fill="none" stroke="#7ebad2" stroke-miterlimit="10" stroke-width="5"/><path d="M1233.17,478.53l-201,134a5.74,5.74,0,0,1-8.42-7.14l81.09-185.88Z" fill="#7ebad2"/></g><g id="WATER"><path d="M3861.29,961.69c-152.49,4.42-389.79,39.21-529.56,100.83l-201.34,88.78a1145,1145,0,0,1-462,97.33H1863.51a1161.69,1161.69,0,0,0-296.25,38.4h0A1161.72,1161.72,0,0,1,1271,1325.44H582.6a566.59,566.59,0,0,1-480.32-266L41.12,961.69Z" fill="none" stroke="#59221d" stroke-linecap="round" stroke-miterlimit="10" stroke-width="5"/><path d="M254,1021.64a23,23,0,0,1,32.45,0h0a23,23,0,0,0,32.45,0h0a23,23,0,0,1,32.45,0l.16.15a23,23,0,0,0,32.45,0l.47-.46a22.93,22.93,0,0,1,32.45,0l.47.46a23,23,0,0,0,32.45,0l.31-.31a23,23,0,0,1,32.45,0l.31.31a23,23,0,0,0,32.46,0l.15-.15a23,23,0,0,1,32.45,0" fill="none" stroke="#59221d" stroke-linecap="round" stroke-miterlimit="10" stroke-width="5"/><path d="M548.11,1021.79a23,23,0,0,0,32.45,0l.16-.15a23,23,0,0,1,32.45,0" fill="none" stroke="#59221d" stroke-linecap="round" stroke-miterlimit="10" stroke-width="5"/><path d="M351.34,1051.26l.16.16a23,23,0,0,0,32.45,0l.47-.47a23,23,0,0,1,32.45,0l.47.47a23,23,0,0,0,32.45,0l.31-.32a23,23,0,0,1,32.45,0l.31.32a23,23,0,0,0,32.46,0l.15-.16a23,23,0,0,1,32.45,0" fill="none" stroke="#59221d" stroke-linecap="round" stroke-miterlimit="10" stroke-width="5"/><path d="M2608,1087.92h0a23,23,0,0,0,32.45,0h0a23,23,0,0,1,32.46,0l.15.16a23,23,0,0,0,32.45,0l.47-.47a23,23,0,0,1,32.45,0l.47.47a23,23,0,0,0,32.45,0l.31-.32a23,23,0,0,1,32.45,0l.32.32a23,23,0,0,0,32.45,0l.15-.16a23,23,0,0,1,32.46,0" fill="none" stroke="#59221d" stroke-linecap="round" stroke-miterlimit="10" stroke-width="5"/><path d="M2672.87,1117.54l.15.16a23,23,0,0,0,32.45,0l.47-.47a23,23,0,0,1,32.45,0l.47.47a23,23,0,0,0,32.45,0l.31-.31a23,23,0,0,1,32.45,0l.32.31a23,23,0,0,0,32.45,0l.15-.16" fill="none" stroke="#59221d" stroke-linecap="round" stroke-miterlimit="10" stroke-width="5"/></g><g id="BRIDGE"><line x1="1275.25" y1="583.7" x2="1275.25" y2="865.53" fill="none" stroke="#59221d" stroke-linecap="round" stroke-miterlimit="10" stroke-width="5"/><line x1="1235.27" y1="623.57" x2="1235.27" y2="865.53" fill="none" stroke="#59221d" stroke-linecap="round" stroke-miterlimit="10" stroke-width="5"/><line x1="1195.29" y1="651.48" x2="1195.29" y2="865.53" fill="none" stroke="#59221d" stroke-linecap="round" stroke-miterlimit="10" stroke-width="5"/><line x1="1155.32" y1="672.41" x2="1155.32" y2="865.53" fill="none" stroke="#59221d" stroke-linecap="round" stroke-miterlimit="10" stroke-width="5"/><line x1="1115.34" y1="689.36" x2="1115.34" y2="865.53" fill="none" stroke="#59221d" stroke-linecap="round" stroke-miterlimit="10" stroke-width="5"/><line x1="1075.36" y1="701.32" x2="1075.36" y2="865.53" fill="none" stroke="#59221d" stroke-linecap="round" stroke-miterlimit="10" stroke-width="5"/><line x1="1035.39" y1="710.29" x2="1035.39" y2="865.53" fill="none" stroke="#59221d" stroke-linecap="round" stroke-miterlimit="10" stroke-width="5"/><line x1="1342.39" y1="574.57" x2="1342.39" y2="865.53" fill="none" stroke="#59221d" stroke-linecap="round" stroke-miterlimit="10" stroke-width="5"/><line x1="1382.36" y1="608.2" x2="1382.36" y2="864.53" fill="none" stroke="#59221d" stroke-linecap="round" stroke-miterlimit="10" stroke-width="5"/><line x1="1422.34" y1="633.76" x2="1422.34" y2="864.53" fill="none" stroke="#59221d" stroke-linecap="round" stroke-miterlimit="10" stroke-width="5"/><line x1="1462.32" y1="654.94" x2="1462.32" y2="864.53" fill="none" stroke="#59221d" stroke-linecap="round" stroke-miterlimit="10" stroke-width="5"/><line x1="1502.29" y1="672.89" x2="1502.29" y2="864.53" fill="none" stroke="#59221d" stroke-linecap="round" stroke-miterlimit="10" stroke-width="5"/><line x1="1542.27" y1="687.56" x2="1542.27" y2="864.53" fill="none" stroke="#59221d" stroke-linecap="round" stroke-miterlimit="10" stroke-width="5"/><line x1="1582.25" y1="700.07" x2="1582.25" y2="864.53" fill="none" stroke="#59221d" stroke-linecap="round" stroke-miterlimit="10" stroke-width="5"/><line x1="1622.29" y1="710.89" x2="1622.29" y2="864.53" fill="none" stroke="#59221d" stroke-linecap="round" stroke-miterlimit="10" stroke-width="5"/><line x1="1662.27" y1="718.56" x2="1662.27" y2="864.53" fill="none" stroke="#59221d" stroke-linecap="round" stroke-miterlimit="10" stroke-width="5"/><line x1="1702.25" y1="727.07" x2="1702.25" y2="864.53" fill="none" stroke="#59221d" stroke-linecap="round" stroke-miterlimit="10" stroke-width="5"/><line x1="1742.29" y1="732.89" x2="1742.29" y2="864.53" fill="none" stroke="#59221d" stroke-linecap="round" stroke-miterlimit="10" stroke-width="5"/><line x1="1782.27" y1="738.56" x2="1782.27" y2="864.53" fill="none" stroke="#59221d" stroke-linecap="round" stroke-miterlimit="10" stroke-width="5"/><line x1="1822.25" y1="742.07" x2="1822.25" y2="864.53" fill="none" stroke="#59221d" stroke-linecap="round" stroke-miterlimit="10" stroke-width="5"/><line x1="1862.29" y1="744.89" x2="1862.29" y2="864.53" fill="none" stroke="#59221d" stroke-linecap="round" stroke-miterlimit="10" stroke-width="5"/><line x1="1902.27" y1="747.56" x2="1902.27" y2="864.53" fill="none" stroke="#59221d" stroke-linecap="round" stroke-miterlimit="10" stroke-width="5"/><line x1="1942.25" y1="748.07" x2="1942.25" y2="864.53" fill="none" stroke="#59221d" stroke-linecap="round" stroke-miterlimit="10" stroke-width="5"/><line x1="995.41" y1="718.26" x2="995.41" y2="865.53" fill="none" stroke="#59221d" stroke-linecap="round" stroke-miterlimit="10" stroke-width="5"/><line x1="955.43" y1="722.25" x2="955.43" y2="865.53" fill="none" stroke="#59221d" stroke-linecap="round" stroke-miterlimit="10" stroke-width="5"/><line x1="915.46" y1="725.24" x2="915.46" y2="865.53" fill="none" stroke="#59221d" stroke-linecap="round" stroke-miterlimit="10" stroke-width="5"/><line x1="875.48" y1="727.23" x2="875.48" y2="865.53" fill="none" stroke="#59221d" stroke-linecap="round" stroke-miterlimit="10" stroke-width="5"/><line x1="835.5" y1="727.23" x2="835.5" y2="865.53" fill="none" stroke="#59221d" stroke-linecap="round" stroke-miterlimit="10" stroke-width="5"/><line x1="795.53" y1="722.25" x2="795.53" y2="865.53" fill="none" stroke="#59221d" stroke-linecap="round" stroke-miterlimit="10" stroke-width="5"/><line x1="755.55" y1="715.27" x2="755.55" y2="865.53" fill="none" stroke="#59221d" stroke-linecap="round" stroke-miterlimit="10" stroke-width="5"/><line x1="715.57" y1="705.3" x2="715.57" y2="865.53" fill="none" stroke="#59221d" stroke-linecap="round" stroke-miterlimit="10" stroke-width="5"/><line x1="675.6" y1="692.35" x2="675.6" y2="865.53" fill="none" stroke="#59221d" stroke-linecap="round" stroke-miterlimit="10" stroke-width="5"/><line x1="635.62" y1="676.4" x2="635.62" y2="865.53" fill="none" stroke="#59221d" stroke-linecap="round" stroke-miterlimit="10" stroke-width="5"/><line x1="595.64" y1="655.47" x2="595.64" y2="865.53" fill="none" stroke="#59221d" stroke-linecap="round" stroke-miterlimit="10" stroke-width="5"/><line x1="555.67" y1="630.55" x2="555.67" y2="865.53" fill="none" stroke="#59221d" stroke-linecap="round" stroke-miterlimit="10" stroke-width="5"/><line x1="487.15" y1="655.47" x2="487.15" y2="864.14" fill="none" stroke="#59221d" stroke-linecap="round" stroke-miterlimit="10" stroke-width="5"/><line x1="447.17" y1="696" x2="447.17" y2="864.14" fill="none" stroke="#59221d" stroke-linecap="round" stroke-miterlimit="10" stroke-width="5"/><line x1="407.2" y1="728.24" x2="407.2" y2="864.14" fill="none" stroke="#59221d" stroke-linecap="round" stroke-miterlimit="10" stroke-width="5"/><line x1="367.22" y1="755.8" x2="367.22" y2="864.14" fill="none" stroke="#59221d" stroke-linecap="round" stroke-miterlimit="10" stroke-width="5"/><line x1="327.24" y1="780.13" x2="327.24" y2="864.14" fill="none" stroke="#59221d" stroke-linecap="round" stroke-miterlimit="10" stroke-width="5"/><line x1="287.27" y1="801.45" x2="287.27" y2="864.14" fill="none" stroke="#59221d" stroke-linecap="round" stroke-miterlimit="10" stroke-width="5"/><line x1="247.29" y1="818.73" x2="247.29" y2="864.14" fill="none" stroke="#59221d" stroke-linecap="round" stroke-miterlimit="10" stroke-width="5"/><line x1="207.31" y1="835.48" x2="207.31" y2="864.14" fill="none" stroke="#59221d" stroke-linecap="round" stroke-miterlimit="10" stroke-width="5"/><line x1="167.34" y1="846.54" x2="167.34" y2="864.14" fill="none" stroke="#59221d" stroke-linecap="round" stroke-miterlimit="10" stroke-width="5"/><line x1="2620.34" y1="544.39" x2="2620.34" y2="865.1" fill="none" stroke="#59221d" stroke-linecap="round" stroke-miterlimit="10" stroke-width="5"/><line x1="2660.82" y1="588.25" x2="2660.82" y2="865.1" fill="none" stroke="#59221d" stroke-linecap="round" stroke-miterlimit="10" stroke-width="5"/><line x1="2701.3" y1="622.14" x2="2701.3" y2="865.1" fill="none" stroke="#59221d" stroke-linecap="round" stroke-miterlimit="10" stroke-width="5"/><line x1="2741.78" y1="649.05" x2="2741.78" y2="865.1" fill="none" stroke="#59221d" stroke-linecap="round" stroke-miterlimit="10" stroke-width="5"/><line x1="2782.26" y1="670.98" x2="2782.26" y2="865.1" fill="none" stroke="#59221d" stroke-linecap="round" stroke-miterlimit="10" stroke-width="5"/><line x1="2822.74" y1="687.93" x2="2822.74" y2="865.1" fill="none" stroke="#59221d" stroke-linecap="round" stroke-miterlimit="10" stroke-width="5"/><line x1="2863.22" y1="702.88" x2="2863.22" y2="865.1" fill="none" stroke="#59221d" stroke-linecap="round" stroke-miterlimit="10" stroke-width="5"/><line x1="2903.7" y1="712.84" x2="2903.7" y2="865.1" fill="none" stroke="#59221d" stroke-linecap="round" stroke-miterlimit="10" stroke-width="5"/><line x1="2944.17" y1="719.82" x2="2944.17" y2="865.1" fill="none" stroke="#59221d" stroke-linecap="round" stroke-miterlimit="10" stroke-width="5"/><line x1="2984.65" y1="724.81" x2="2984.65" y2="865.1" fill="none" stroke="#59221d" stroke-linecap="round" stroke-miterlimit="10" stroke-width="5"/><line x1="3025.13" y1="726.8" x2="3025.13" y2="865.1" fill="none" stroke="#59221d" stroke-linecap="round" stroke-miterlimit="10" stroke-width="5"/><line x1="3065.61" y1="726.8" x2="3065.61" y2="865.1" fill="none" stroke="#59221d" stroke-linecap="round" stroke-miterlimit="10" stroke-width="5"/><line x1="3106.09" y1="721.82" x2="3106.09" y2="865.1" fill="none" stroke="#59221d" stroke-linecap="round" stroke-miterlimit="10" stroke-width="5"/><line x1="3146.57" y1="713.84" x2="3146.57" y2="865.1" fill="none" stroke="#59221d" stroke-linecap="round" stroke-miterlimit="10" stroke-width="5"/><line x1="3187.05" y1="703.87" x2="3187.05" y2="865.1" fill="none" stroke="#59221d" stroke-linecap="round" stroke-miterlimit="10" stroke-width="5"/><line x1="3227.53" y1="689.92" x2="3227.53" y2="865.1" fill="none" stroke="#59221d" stroke-linecap="round" stroke-miterlimit="10" stroke-width="5"/><line x1="3268.01" y1="673.97" x2="3268.01" y2="865.1" fill="none" stroke="#59221d" stroke-linecap="round" stroke-miterlimit="10" stroke-width="5"/><line x1="3308.49" y1="653.04" x2="3308.49" y2="865.1" fill="none" stroke="#59221d" stroke-linecap="round" stroke-miterlimit="10" stroke-width="5"/><line x1="3347.99" y1="628.12" x2="3347.99" y2="865.1" fill="none" stroke="#59221d" stroke-linecap="round" stroke-miterlimit="10" stroke-width="5"/><line x1="3702.97" y1="843.6" x2="3702.97" y2="865.1" fill="none" stroke="#59221d" stroke-linecap="round" stroke-miterlimit="10" stroke-width="5"/><line x1="3662.49" y1="829.55" x2="3662.49" y2="865.1" fill="none" stroke="#59221d" stroke-linecap="round" stroke-miterlimit="10" stroke-width="5"/><line x1="3622.01" y1="813.06" x2="3622.01" y2="865.1" fill="none" stroke="#59221d" stroke-linecap="round" stroke-miterlimit="10" stroke-width="5"/><line x1="3581.53" y1="794.93" x2="3581.53" y2="865.1" fill="none" stroke="#59221d" stroke-linecap="round" stroke-miterlimit="10" stroke-width="5"/><line x1="3541.05" y1="772.55" x2="3541.05" y2="865.1" fill="none" stroke="#59221d" stroke-linecap="round" stroke-miterlimit="10" stroke-width="5"/><line x1="3500.57" y1="745.54" x2="3500.57" y2="865.1" fill="none" stroke="#59221d" stroke-linecap="round" stroke-miterlimit="10" stroke-width="5"/><line x1="3460.09" y1="711.46" x2="3460.09" y2="865.1" fill="none" stroke="#59221d" stroke-linecap="round" stroke-miterlimit="10" stroke-width="5"/><line x1="3420.59" y1="671.13" x2="3420.59" y2="865.1" fill="none" stroke="#59221d" stroke-linecap="round" stroke-miterlimit="10" stroke-width="5"/><line x1="2547.57" y1="532.53" x2="2547.57" y2="865.1" fill="none" stroke="#59221d" stroke-linecap="round" stroke-miterlimit="10" stroke-width="5"/><line x1="2507.09" y1="570.18" x2="2507.09" y2="865.1" fill="none" stroke="#59221d" stroke-linecap="round" stroke-miterlimit="10" stroke-width="5"/><line x1="2466.61" y1="600.4" x2="2466.61" y2="865.1" fill="none" stroke="#59221d" stroke-linecap="round" stroke-miterlimit="10" stroke-width="5"/><line x1="2426.13" y1="625.36" x2="2426.13" y2="865.1" fill="none" stroke="#59221d" stroke-linecap="round" stroke-miterlimit="10" stroke-width="5"/><line x1="2385.65" y1="647.17" x2="2385.65" y2="865.1" fill="none" stroke="#59221d" stroke-linecap="round" stroke-miterlimit="10" stroke-width="5"/><line x1="2345.17" y1="666.79" x2="2345.17" y2="865.1" fill="none" stroke="#59221d" stroke-linecap="round" stroke-miterlimit="10" stroke-width="5"/><line x1="2304.69" y1="683.33" x2="2304.69" y2="865.1" fill="none" stroke="#59221d" stroke-linecap="round" stroke-miterlimit="10" stroke-width="5"/><line x1="2264.21" y1="699.7" x2="2264.21" y2="865.1" fill="none" stroke="#59221d" stroke-linecap="round" stroke-miterlimit="10" stroke-width="5"/><line x1="2223.73" y1="710.94" x2="2223.73" y2="865.1" fill="none" stroke="#59221d" stroke-linecap="round" stroke-miterlimit="10" stroke-width="5"/><line x1="2183.25" y1="721.11" x2="2183.25" y2="865.1" fill="none" stroke="#59221d" stroke-linecap="round" stroke-miterlimit="10" stroke-width="5"/><line x1="2142.77" y1="730.16" x2="2142.77" y2="865.1" fill="none" stroke="#59221d" stroke-linecap="round" stroke-miterlimit="10" stroke-width="5"/><line x1="2102.29" y1="737.15" x2="2102.29" y2="865.1" fill="none" stroke="#59221d" stroke-linecap="round" stroke-miterlimit="10" stroke-width="5"/><line x1="2061.81" y1="741.93" x2="2061.81" y2="865.1" fill="none" stroke="#59221d" stroke-linecap="round" stroke-miterlimit="10" stroke-width="5"/><line x1="2021.33" y1="748.61" x2="2021.33" y2="865.1" fill="none" stroke="#59221d" stroke-linecap="round" stroke-miterlimit="10" stroke-width="5"/><line x1="1980.85" y1="748.2" x2="1980.85" y2="865.1" fill="none" stroke="#59221d" stroke-linecap="round" stroke-miterlimit="10" stroke-width="5"/><line x1="1307.75" y1="539.6" x2="1307.75" y2="960.79" fill="none" stroke="#59221d" stroke-linecap="round" stroke-miterlimit="10" stroke-width="5"/><line x1="520.52" y1="605.76" x2="520.52" y2="960.79" fill="none" stroke="#59221d" stroke-linecap="round" stroke-miterlimit="10" stroke-width="5"/><line x1="2582.97" y1="489.58" x2="2582.97" y2="960.79" fill="none" stroke="#59221d" stroke-linecap="round" stroke-miterlimit="10" stroke-width="5"/><line x1="3380.11" y1="605.76" x2="3380.11" y2="960.79" fill="none" stroke="#59221d" stroke-linecap="round" stroke-miterlimit="10" stroke-width="5"/><path d="M1307.48,534.53c111.72,153.81,405.15,213.28,650.08,213.28" fill="none" stroke="#59221d" stroke-linecap="round" stroke-miterlimit="10" stroke-width="5"/><path d="M520.79,605.4c86.85,67.7,208.5,120.66,343.15,120.66,200.68,0,372.47-58.58,443.25-191" fill="none" stroke="#59221d" stroke-linecap="round" stroke-miterlimit="10" stroke-width="5"/><path d="M41.12,864.63c200.63,0,433.64-157.31,479.56-259.17" fill="none" stroke="#59221d" stroke-linecap="round" stroke-miterlimit="10" stroke-width="5"/><path d="M2583.24,489C2470.12,642.84,2204,747.81,1956,747.81" fill="none" stroke="#59221d" stroke-linecap="round" stroke-miterlimit="10" stroke-width="5"/><path d="M3379.84,605.4c-88,67.7-211.13,120.66-347.48,120.66-203.2,0-377.15-104.34-448.82-236.8" fill="none" stroke="#59221d" stroke-linecap="round" stroke-miterlimit="10" stroke-width="5"/><path d="M3861.29,864.64c-219.85,0-434.8-139.46-481.35-259.18" fill="none" stroke="#59221d" stroke-linecap="round" stroke-miterlimit="10" stroke-width="5"/><line x1="3860.27" y1="865.42" x2="41.12" y2="865.42" fill="none" stroke="#59221d" stroke-linecap="round" stroke-miterlimit="10" stroke-width="5"/><path d="M428.88,865.42c50.67,0,91.75,42.16,91.75,94.16" fill="none" stroke="#59221d" stroke-linecap="round" stroke-miterlimit="10" stroke-width="5"/><path d="M612.27,865.42c-50.67,0-91.75,42.16-91.75,94.16" fill="none" stroke="#59221d" stroke-linecap="round" stroke-miterlimit="10" stroke-width="5"/><path d="M1216.88,865.42c50.67,0,91.75,42.16,91.75,94.16" fill="none" stroke="#59221d" stroke-linecap="round" stroke-miterlimit="10" stroke-width="5"/><path d="M1400.27,865.42c-50.67,0-91.75,42.16-91.75,94.16" fill="none" stroke="#59221d" stroke-linecap="round" stroke-miterlimit="10" stroke-width="5"/><path d="M3287.25,865.42c51.31,0,92.9,42.16,92.9,94.16" fill="none" stroke="#59221d" stroke-linecap="round" stroke-miterlimit="10" stroke-width="5"/><path d="M3472.94,865.42c-51.3,0-92.9,42.16-92.9,94.16" fill="none" stroke="#59221d" stroke-linecap="round" stroke-miterlimit="10" stroke-width="5"/><path d="M2490.18,865.42c51.3,0,92.9,42.16,92.9,94.16" fill="none" stroke="#59221d" stroke-linecap="round" stroke-miterlimit="10" stroke-width="5"/><path d="M2675.87,865.42c-51.31,0-92.9,42.16-92.9,94.16" fill="none" stroke="#59221d" stroke-linecap="round" stroke-miterlimit="10" stroke-width="5"/></g><g id="FAMILY_CAR" data-name="FAMILY &amp; CAR"><g id="GROUND"><line x1="253.99" y1="2274.79" x2="4098.37" y2="2274.79" fill="none" stroke="#59221d" stroke-linecap="round" stroke-miterlimit="10" stroke-width="5"/><line x1="944" y1="2340.18" x2="2451.7" y2="2340.18" fill="none" stroke="#59221d" stroke-linecap="round" stroke-miterlimit="10" stroke-width="5"/></g><g id="CAR_WINDOWS" data-name="CAR WINDOWS"><path d="M1374.77,1093.71l-95.36,427.51a78.82,78.82,0,0,1-76.93,61.66H780.84a48.08,48.08,0,0,1-46.93-58.54l95.37-427.51a78.81,78.81,0,0,1,76.92-61.65h421.65A48.07,48.07,0,0,1,1374.77,1093.71Z" fill="#fff"/><path d="M2017.44,1093.71l-95.37,427.51a78.8,78.8,0,0,1-76.92,61.66h-443.4a48.07,48.07,0,0,1-46.92-58.54l95.37-427.51a78.8,78.8,0,0,1,76.92-61.65h443.4A48.07,48.07,0,0,1,2017.44,1093.71Z" fill="#fff"/><path d="M2694.51,1582.88H2067.18a57.6,57.6,0,0,1-56.22-70.15l92.78-415.9a78.8,78.8,0,0,1,76.92-61.65h239.21a74.2,74.2,0,0,1,65.32,39l243.46,451.51C2742.58,1551.52,2723.87,1582.88,2694.51,1582.88Z" fill="#fff"/></g><g id="MAN"><g id="T-SHIRT"><path d="M1917.83,1582.88V1367.19a116.79,116.79,0,0,1,116.79-116.79h273.27a113.65,113.65,0,0,1,104.67,69.37l111.31,263.11Z" fill="#fff" stroke="#59221d" stroke-miterlimit="10" stroke-width="5"/><g id="PATTERN"><polygon points="2510.7 1558.15 1920.32 1558.15 1920.32 1552.15 2508.16 1552.15 2510.7 1558.15" fill="#7ebad2"/><polygon points="2498.96 1530.42 1920.32 1530.42 1920.32 1524.42 2496.43 1524.42 2498.96 1530.42" fill="#7ebad2"/><polygon points="2487.23 1502.69 1920.32 1502.69 1920.32 1496.69 2484.69 1496.69 2487.23 1502.69" fill="#7ebad2"/><polygon points="2475.5 1474.96 1920.32 1474.96 1920.32 1468.96 2472.96 1468.96 2475.5 1474.96" fill="#7ebad2"/><polygon points="2463.77 1447.23 1920.32 1447.23 1920.32 1441.23 2461.23 1441.23 2463.77 1447.23" fill="#7ebad2"/><polygon points="2452.04 1419.5 1920.32 1419.5 1920.32 1413.5 2449.5 1413.5 2452.04 1419.5" fill="#7ebad2"/><polygon points="2440.31 1391.77 1920.32 1391.77 1920.32 1385.77 2437.77 1385.77 2440.31 1391.77" fill="#7ebad2"/><path d="M2428.57,1364h-508.2q.08-3,.31-6H2426Z" fill="#7ebad2"/><path d="M2416.85,1336.32H1924.56c.56-2,1.19-4,1.87-6h487.88Z" fill="#7ebad2"/><path d="M2404.22,1308.59h-467.7q1.83-3.06,3.86-6h460.14C2401.81,1304.55,2403.05,1306.54,2404.22,1308.59Z" fill="#7ebad2"/><path d="M2381.65,1280.86H1959.79c2.43-2.1,4.94-4.11,7.54-6h407Q2378.09,1277.7,2381.65,1280.86Z" fill="#7ebad2"/></g></g><g id="WHEEL"><line x1="2621.34" y1="1478.86" x2="2436.85" y2="1585.05" fill="none" stroke="#ffd100" stroke-miterlimit="10" stroke-width="5"/><path d="M2620.67,1585.18a149.4,149.4,0,0,0,10.23-36.47c9.95-66-30.47-121.11-90.28-123.07s-116.35,50-126.3,116a126.21,126.21,0,0,0,.78,43.44Z" fill="none" stroke="#ffd100" stroke-miterlimit="10" stroke-width="5"/></g><g id="HAND"><path d="M2458.46,1582.88H1917.17c34-28.28,369.22-159.67,509.28-104.65C2507.27,1510,2458.46,1582.88,2458.46,1582.88Z" fill="#a74602"/><path d="M2425.37,1511.94c30.05,11.81,39.18,26.3,42.56,43.62" fill="none" stroke="#59221d" stroke-linecap="round" stroke-linejoin="round" stroke-width="5"/><path d="M2414.5,1542.39c30.05,11.81,40.18,23.3,43.56,40.62" fill="none" stroke="#59221d" stroke-linecap="round" stroke-linejoin="round" stroke-width="5"/></g><g id="NECK"><polygon points="2244.61 1250.4 2244.61 1198.57 2170.29 1181.66 2125.91 1250.4 2245.58 1326.52 2244.61 1250.4" fill="#a74602"/><line x1="2125.91" y1="1250.4" x2="2248.84" y2="1326.52" fill="none" stroke="#59221d" stroke-linecap="round" stroke-miterlimit="10" stroke-width="5"/><path d="M2244.61,1252.4v-53.83l-71.06-15.82h0a36.24,36.24,0,0,0,15.48,28.83Z" fill="#59221d"/></g><g id="HEAD"><path id="HAIR" d="M2256.66,1134.3a16.6,16.6,0,0,0-14.94-9.34h-36.37c-.64,0-1.27,0-1.89.08a23.56,23.56,0,0,0-21.67,23.48v7.38c-11.29-.8-20.21-10.56-20.21-22.47,0-12.44,9.73-22.52,21.72-22.52a20.63,20.63,0,0,1,5.06.62c3.88-7.31,24.27-42.65,45.92-23.59,5.73,5,.64,15.18.28,15.9,1-1.09,22.92-24.93,42.29-6.45C2291.94,1111.79,2268.63,1127.59,2256.66,1134.3Z" fill="#59221d"/><path id="HEAD-2" data-name="HEAD" d="M2258.34,1141.57v43.14a23.29,23.29,0,0,1-23.29,23.29h-30a23.29,23.29,0,0,1-23.29-23.29v-.16h-16.47a17.4,17.4,0,0,1-17.4-17.4v-3.46a17.4,17.4,0,0,1,17.4-17.4H2168a18,18,0,0,1,13.76,6.33v-4.1a23.56,23.56,0,0,1,23.56-23.56h36.37A16.61,16.61,0,0,1,2258.34,1141.57Z" fill="#a74602"/><g id="FACE"><path d="M2253.94,1146.93s-23.68-4-20.18,5.51,3.52,19.84,1.09,24.94" fill="none" stroke="#59221d" stroke-linecap="round" stroke-miterlimit="10" stroke-width="5"/><ellipse cx="2212.86" cy="1162.9" rx="3.14" ry="4.28" fill="#59221d"/><ellipse cx="2245.34" cy="1162.9" rx="3.14" ry="4.28" fill="#59221d"/><path d="M2233.69,1187.56s-11.65,3-13.1-5.37" fill="none" stroke="#59221d" stroke-linecap="round" stroke-miterlimit="10" stroke-width="5"/><path d="M2198.41,1148a33,33,0,0,1,20-2.53" fill="none" stroke="#59221d" stroke-linecap="round" stroke-miterlimit="10" stroke-width="5"/><path d="M2176.39,1168.34a12.26,12.26,0,0,0-12.26-12.26" fill="none" stroke="#59221d" stroke-linecap="round" stroke-miterlimit="10" stroke-width="5"/></g><circle id="HAIR-2" data-name="HAIR" cx="2185.25" cy="1128.07" r="17.22" fill="#59221d"/></g></g><g id="CAR"><g id="BACK_WHEEL" data-name="BACK WHEEL"><path d="M3067.76,2129.71c0,79.76-55.38,144.41-130.81,144.41h-34.86c72.77,0,131.75-64.65,131.75-144.41s-59-144.42-131.75-144.42H2937C3012.38,1985.29,3067.76,2050,3067.76,2129.71Z" fill="#fff" stroke="#59221d" stroke-miterlimit="10" stroke-width="5"/><ellipse cx="2902.1" cy="2129.71" rx="131.75" ry="144.42" fill="#a74602" stroke="#59221d" stroke-miterlimit="10" stroke-width="5"/><ellipse cx="2902.09" cy="2130.84" rx="79.86" ry="87.54" fill="none" stroke="#59221d" stroke-miterlimit="10" stroke-width="5"/></g><g id="CAR-2" data-name="CAR"><path d="M3224.4,1795l-432.28-212.1-295.33-547.7-10.91-20.25a106.34,106.34,0,0,0-93.79-56.24H866.94a106.32,106.32,0,0,0-103.77,83.16L530.6,2084.4h2745V1880.47A97,97,0,0,0,3224.4,1795Zm-2021.92-212.1H780.84a48.08,48.08,0,0,1-46.93-58.54l95.37-427.51a78.81,78.81,0,0,1,76.92-61.65h421.65a48.07,48.07,0,0,1,46.92,58.53l-95.36,427.51A78.82,78.82,0,0,1,1202.48,1582.88Zm642.67,0h-443.4a48.07,48.07,0,0,1-46.92-58.54l95.37-427.51a78.8,78.8,0,0,1,76.92-61.65h443.4a48.07,48.07,0,0,1,46.92,58.53l-95.37,427.51A78.8,78.8,0,0,1,1845.15,1582.88Zm849.36,0H2067.18a57.6,57.6,0,0,1-56.22-70.15l92.78-415.9a78.8,78.8,0,0,1,76.92-61.65h239.21a74.2,74.2,0,0,1,65.32,39l243.46,451.51C2742.58,1551.52,2723.87,1582.88,2694.51,1582.88Z" fill="#ffc200"/><path d="M3347.74,2106.51v25a22.11,22.11,0,0,1-22.11,22.11H480.57a22.11,22.11,0,0,1-22.12-22.11v-25a22.1,22.1,0,0,1,22.12-22.11H3325.63A22.1,22.1,0,0,1,3347.74,2106.51Z" fill="#fff" stroke="#59221d" stroke-miterlimit="10" stroke-width="5"/><path d="M2639.83,2106.51v25a22.11,22.11,0,0,1-22.11,22.11H480.57a22.11,22.11,0,0,1-22.12-22.11v-25a22.1,22.1,0,0,1,22.12-22.11H2617.72A22.1,22.1,0,0,1,2639.83,2106.51Z" fill="#fff" stroke="#59221d" stroke-miterlimit="10" stroke-width="5"/></g><g id="HEADLIGHTS"><ellipse cx="3215.88" cy="1879.65" rx="59.43" ry="78.11" fill="#fff"/><ellipse cx="3206.03" cy="1871.51" rx="61.56" ry="75.76" fill="none" stroke="#59221d" stroke-linecap="round" stroke-miterlimit="10" stroke-width="5"/><path d="M3202.77,1795.75h-17.4c-34,0-61.56,33.92-61.56,75.76s27.56,75.76,61.56,75.76h17.4" fill="none" stroke="#59221d" stroke-linecap="round" stroke-miterlimit="10" stroke-width="5"/><ellipse cx="2649.25" cy="1879.65" rx="59.43" ry="78.11" fill="#fff"/><ellipse cx="2639.4" cy="1871.51" rx="61.56" ry="75.76" fill="none" stroke="#59221d" stroke-linecap="round" stroke-miterlimit="10" stroke-width="5"/><path d="M2636.14,1795.75h-17.4c-34,0-61.56,33.92-61.56,75.76s27.56,75.76,61.56,75.76h17.4" fill="none" stroke="#59221d" stroke-linecap="round" stroke-miterlimit="10" stroke-width="5"/></g><g id="CONTOURS"><path d="M2526.35,2084.4V1880.47a97,97,0,0,0-51.18-85.49l-385.89-179.63" fill="none" stroke="#59221d" stroke-linecap="round" stroke-miterlimit="10" stroke-width="5"/><path d="M1201,2040.46l225.65-1010.65a26.36,26.36,0,0,1,25.72-20.61H2033.1A32.7,32.7,0,0,1,2065,1049l-221.36,991.43" fill="none" stroke="#59221d" stroke-linecap="round" stroke-miterlimit="10" stroke-width="5"/><line x1="1218.29" y1="1615.35" x2="751.65" y2="1615.35" fill="none" stroke="#59221d" stroke-linecap="round" stroke-miterlimit="10" stroke-width="5"/><line x1="776.33" y1="1009.2" x2="2485.88" y2="1009.2" fill="none" stroke="#59221d" stroke-linecap="round" stroke-miterlimit="10" stroke-width="5"/><line x1="2734.38" y1="1853.48" x2="3102.59" y2="1853.48" fill="none" stroke="#59221d" stroke-linecap="round" stroke-miterlimit="10" stroke-width="5"/><line x1="2156.99" y1="1615.35" x2="2756.05" y2="1615.35" fill="none" stroke="#59221d" stroke-linecap="round" stroke-miterlimit="10" stroke-width="5"/><path d="M627.36,2032c38.65-90.2,124.58-153,224.37-153,103.26,0,191.66,67.19,228.22,162.45l862.87,0C1976.7,1941.7,2066.31,1879,2166.1,1879c103.26,0,191.66,67.19,228.21,162.45" fill="none" stroke="#59221d" stroke-linecap="round" stroke-miterlimit="10" stroke-width="5"/><rect x="2770.96" y="1888.12" width="295.05" height="144.32" rx="18.83" fill="none" stroke="#fff" stroke-linecap="round" stroke-miterlimit="10" stroke-width="6"/><line x1="2812.32" y1="1928.53" x2="3024.64" y2="1928.53" fill="none" stroke="#59221d" stroke-linecap="round" stroke-miterlimit="10" stroke-width="5"/><line x1="2812.32" y1="1962.24" x2="3024.64" y2="1962.24" fill="none" stroke="#59221d" stroke-linecap="round" stroke-miterlimit="10" stroke-width="5"/><line x1="2812.32" y1="1995.95" x2="3024.64" y2="1995.95" fill="none" stroke="#59221d" stroke-linecap="round" stroke-miterlimit="10" stroke-width="5"/></g><g id="WHEELS"><path d="M1044.75,2084.4h-386c20.37-90.67,99.06-158.26,193-158.26S1024.38,1993.73,1044.75,2084.4Z" fill="#59221d"/><path d="M999.79,2130.48c0,79.76-55.39,144.42-130.82,144.42H834.12c72.76,0,131.75-64.66,131.75-144.42s-59-144.42-131.75-144.42H869C944.4,1986.06,999.79,2050.72,999.79,2130.48Z" fill="#a74602" stroke="#59221d" stroke-miterlimit="10" stroke-width="5"/><ellipse cx="834.12" cy="2130.48" rx="131.75" ry="144.42" fill="#fff" stroke="#59221d" stroke-miterlimit="10" stroke-width="5"/><ellipse cx="843.7" cy="2140.32" rx="79.86" ry="87.54" fill="#a74602"/><ellipse cx="834.12" cy="2131.61" rx="79.86" ry="87.54" fill="none" stroke="#59221d" stroke-miterlimit="10" stroke-width="5"/><circle cx="833.9" cy="2131.56" r="13" fill="none" stroke="#59221d" stroke-miterlimit="10" stroke-width="5"/><path d="M2359.12,2084.4h-386c20.37-90.67,99.06-158.26,193-158.26S2338.75,1993.73,2359.12,2084.4Z" fill="#59221d"/><path d="M2314.16,2130.48c0,79.76-55.39,144.42-130.82,144.42h-34.85c72.76,0,131.75-64.66,131.75-144.42s-59-144.42-131.75-144.42h34.85C2258.77,1986.06,2314.16,2050.72,2314.16,2130.48Z" fill="#a74602" stroke="#59221d" stroke-miterlimit="10" stroke-width="5"/><ellipse cx="2148.49" cy="2130.48" rx="131.75" ry="144.42" fill="#fff" stroke="#59221d" stroke-miterlimit="10" stroke-width="5"/><ellipse cx="2158.07" cy="2140.32" rx="79.86" ry="87.54" fill="#a74602"/><ellipse cx="2148.49" cy="2131.61" rx="79.86" ry="87.54" fill="none" stroke="#59221d" stroke-miterlimit="10" stroke-width="5"/><circle cx="2148.27" cy="2131.56" r="13" fill="none" stroke="#59221d" stroke-miterlimit="10" stroke-width="5"/></g><g id="BAGGAGE"><path d="M2145.56,788.1V927.24a31.45,31.45,0,0,1-31.45,31.45H1100.37a31.44,31.44,0,0,1-31.44-31.45V788.09a31.43,31.43,0,0,1,31.44-31.44H2114.1A31.46,31.46,0,0,1,2145.56,788.1Z" fill="#7ebad2"/><path d="M2145.56,788.1V927.24a31.45,31.45,0,0,1-31.45,31.45H1764.78a31.45,31.45,0,0,1-31.44-31.45V788.09a31.44,31.44,0,0,1,31.44-31.44H2114.1A31.46,31.46,0,0,1,2145.56,788.1Z" fill="#a74602"/><path d="M2132.47,796.64V918.7c0,15.24-13.11,27.59-29.29,27.59H1777.89c-16.17,0-29.28-12.35-29.28-27.59V796.63c0-15.24,13.11-27.59,29.28-27.59h325.28C2119.35,769,2132.47,781.4,2132.47,796.64Z" fill="none" stroke="#7ebad2" stroke-linecap="round" stroke-miterlimit="10" stroke-width="5"/><line x1="1748.53" y1="857.12" x2="2129.27" y2="857.12" fill="none" stroke="#7ebad2" stroke-linecap="round" stroke-miterlimit="10" stroke-width="5"/><path d="M1906.14,340.3H1908a10.62,10.62,0,0,1,10.62,10.62v63a0,0,0,0,1,0,0h-23.09a0,0,0,0,1,0,0v-63a10.62,10.62,0,0,1,10.62-10.62Z" fill="none" stroke="#59221d" stroke-linecap="round" stroke-miterlimit="10" stroke-width="5"/><path d="M1834.59,410.65h143.56a28.19,28.19,0,0,1,28.19,28.19V756.65a0,0,0,0,1,0,0H1806.4a0,0,0,0,1,0,0V438.84A28.19,28.19,0,0,1,1834.59,410.65Z" fill="#59221d"/><path d="M2006.33,438.84v5.59l-96.48,93.64V756.65h-5V537.89l-98.45-93.55v-5.5c0-.46,0-.91,0-1.36L1904.85,531V410.65h5V531.1l96.44-93.6C2006.32,437.94,2006.33,438.39,2006.33,438.84Z" fill="#fff"/><line x1="1936.99" y1="958.69" x2="1936.99" y2="889.42" fill="none" stroke="#59221d" stroke-miterlimit="10" stroke-width="5"/><line x1="924.6" y1="958.69" x2="924.6" y2="889.42" fill="none" stroke="#59221d" stroke-miterlimit="10" stroke-width="5"/><line x1="2340.42" y1="958.69" x2="2340.42" y2="889.42" fill="none" stroke="#59221d" stroke-miterlimit="10" stroke-width="5"/><line x1="868.69" y1="889.42" x2="2378.29" y2="889.42" fill="none" stroke="#59221d" stroke-linecap="round" stroke-miterlimit="10" stroke-width="5"/><path d="M1253.45,524.28h514.2A38.75,38.75,0,0,1,1806.4,563V756.65a0,0,0,0,1,0,0H1218.24a0,0,0,0,1,0,0V559.49A35.21,35.21,0,0,1,1253.45,524.28Z" fill="#ffc200"/><path d="M1804.23,756.65V562.73A36.27,36.27,0,0,0,1768,526.46h-42.75a38.29,38.29,0,0,0-38.29,38.29v191.9" fill="none" stroke="#fff" stroke-miterlimit="10" stroke-width="5"/><line x1="1251.09" y1="524.28" x2="1251.09" y2="756.65" fill="none" stroke="#fff" stroke-miterlimit="10" stroke-width="5"/><line x1="1284.8" y1="524.28" x2="1284.8" y2="756.65" fill="none" stroke="#fff" stroke-miterlimit="10" stroke-width="5"/><line x1="1318.51" y1="524.28" x2="1318.51" y2="756.65" fill="none" stroke="#fff" stroke-miterlimit="10" stroke-width="5"/><line x1="1352.22" y1="524.28" x2="1352.22" y2="756.65" fill="none" stroke="#fff" stroke-miterlimit="10" stroke-width="5"/><line x1="1385.93" y1="524.28" x2="1385.93" y2="756.65" fill="none" stroke="#fff" stroke-miterlimit="10" stroke-width="5"/><line x1="1419.64" y1="524.28" x2="1419.64" y2="756.65" fill="none" stroke="#fff" stroke-miterlimit="10" stroke-width="5"/><line x1="1453.35" y1="524.28" x2="1453.35" y2="756.65" fill="none" stroke="#fff" stroke-miterlimit="10" stroke-width="5"/><line x1="1487.06" y1="524.28" x2="1487.06" y2="756.65" fill="none" stroke="#fff" stroke-miterlimit="10" stroke-width="5"/><line x1="1520.77" y1="524.28" x2="1520.77" y2="756.65" fill="none" stroke="#fff" stroke-miterlimit="10" stroke-width="5"/><line x1="1554.48" y1="524.28" x2="1554.48" y2="756.65" fill="none" stroke="#fff" stroke-miterlimit="10" stroke-width="5"/><line x1="1588.19" y1="524.28" x2="1588.19" y2="756.65" fill="none" stroke="#fff" stroke-miterlimit="10" stroke-width="5"/><line x1="1621.9" y1="524.28" x2="1621.9" y2="756.65" fill="none" stroke="#fff" stroke-miterlimit="10" stroke-width="5"/><line x1="1655.61" y1="524.28" x2="1655.61" y2="756.65" fill="none" stroke="#fff" stroke-miterlimit="10" stroke-width="5"/><line x1="1218.24" y1="725.28" x2="1684.21" y2="725.28" fill="none" stroke="#fff" stroke-miterlimit="10" stroke-width="5"/><line x1="1218.24" y1="691.57" x2="1684.21" y2="691.57" fill="none" stroke="#fff" stroke-miterlimit="10" stroke-width="5"/><line x1="1218.24" y1="657.86" x2="1684.21" y2="657.86" fill="none" stroke="#fff" stroke-miterlimit="10" stroke-width="5"/><line x1="1218.24" y1="624.15" x2="1684.21" y2="624.15" fill="none" stroke="#fff" stroke-miterlimit="10" stroke-width="5"/><line x1="1218.24" y1="590.44" x2="1684.21" y2="590.44" fill="none" stroke="#fff" stroke-miterlimit="10" stroke-width="5"/><line x1="1218.24" y1="556.73" x2="1687.47" y2="556.73" fill="none" stroke="#fff" stroke-miterlimit="10" stroke-width="5"/><line x1="1745.57" y1="526.46" x2="1745.57" y2="756.65" fill="none" stroke="#fff" stroke-miterlimit="10" stroke-width="5"/><path d="M1557.74,480.13h3a17.3,17.3,0,0,1,17.3,17.3v3a17.3,17.3,0,0,1-17.3,17.3h-20.33a0,0,0,0,1,0,0V497.43A17.3,17.3,0,0,1,1557.74,480.13Z" fill="none" stroke="#59221d" stroke-linecap="round" stroke-miterlimit="10" stroke-width="5"/><path d="M1514.67,464.74h3.83a21.93,21.93,0,0,1,21.93,21.93v31.09a0,0,0,0,1,0,0h-25.76a21.93,21.93,0,0,1-21.93-21.93v-9.16A21.93,21.93,0,0,1,1514.67,464.74Z" fill="none" stroke="#59221d" stroke-linecap="round" stroke-miterlimit="10" stroke-width="5"/><path d="M1540.44,517.76a55.93,55.93,0,0,0-53.51,39.64l-99.06,332" fill="none" stroke="#59221d" stroke-linecap="round" stroke-miterlimit="10" stroke-width="5"/></g><g id="MIRROR"><ellipse cx="2825.17" cy="1411.92" rx="45.8" ry="63.56" fill="#ffc200"/><ellipse cx="2814.03" cy="1406.04" rx="45.8" ry="63.56" fill="none" stroke="#59221d" stroke-linecap="round" stroke-miterlimit="10" stroke-width="5"/><path d="M2775.12,1547.87a201.64,201.64,0,0,1,52-135.1" fill="none" stroke="#59221d" stroke-linecap="round" stroke-miterlimit="10" stroke-width="5"/></g></g><g id="WOMAN"><g id="BODY"><path d="M1509.89,1300.27l245.88-40.87,71.45,177.71a72.78,72.78,0,0,1-14.73,77.25l-12.29,13v55.57h-294Z" fill="#59221d"/></g><g id="HANDS"><path id="RIGHT" d="M1812.49,1514.36a72.78,72.78,0,0,0,14.73-77.25l-71.45-177.71a80.82,80.82,0,0,1,86,44.52l77.07,159.3c26.78,55.36-13.55,119.66-75,119.66H1800.2v-55.57Z" fill="#a74602"/><g id="LEFT"><path d="M1503.17,1301.22h0a90.06,90.06,0,0,0-66.18,49.91l-70.12,146.55c-55.75,116.51,69.27,236.73,183.51,176.47l173-91.27H1911.5a15.41,15.41,0,0,0,15.41-15.41h0a15.41,15.41,0,0,0-8.48-13.76l-84.31-42.49a210.49,210.49,0,0,0-94.7-22.51H1557.81l2.28-138.61A48.77,48.77,0,0,0,1503.17,1301.22Z" fill="#a74602"/><path d="M1911.5,1579.62c8.51,0,15.41-3.64,15.41-12.15h0a15.41,15.41,0,0,0-8.48-13.76l-84.31-42.49a210.49,210.49,0,0,0-94.7-22.51H1586.37a156.48,156.48,0,0,0-79.48,21.69" fill="none" stroke="#59221d" stroke-linecap="round" stroke-miterlimit="10" stroke-width="5"/><path d="M1701.67,1554.6a25,25,0,0,0,25,25" fill="none" stroke="#59221d" stroke-linecap="round" stroke-miterlimit="10" stroke-width="5"/><path d="M1823.05,1536.56l63,25.8a18.65,18.65,0,0,1,11.57,17.26" fill="none" stroke="#59221d" stroke-linecap="round" stroke-miterlimit="10" stroke-width="5"/><path d="M1781.32,1542.18l49.26,20.18a18.65,18.65,0,0,1,11.57,17.26" fill="none" stroke="#59221d" stroke-linecap="round" stroke-miterlimit="10" stroke-width="5"/></g></g><g id="HEAD-3" data-name="HEAD"><path id="HAIR-3" data-name="HAIR" d="M1759.34,1258.89,1632.13,1280c-12.08,51-57.43,82.46-107.55,65.18-109-37.58,78.3-188.51,110.45-216.56,34.38-30,80-30.86,90.55-3.92,9.77,24.87-10.5,36-25,38.06C1702.18,1174.26,1713.31,1242.63,1759.34,1258.89Z" fill="#ffc200"/><g id="NECK-2" data-name="NECK"><path d="M1691.15,1218.54v59.32a33.34,33.34,0,0,1-33.34,33.34h0a33.34,33.34,0,0,1-33.34-33.34V1189.6Z" fill="#a74602"/><path d="M1624.47,1189.6h0l66.68,28.94v51.71l-40.41-25.34A71.33,71.33,0,0,1,1624.47,1189.6Z" fill="#59221d"/></g><path id="HEAD-4" data-name="HEAD" d="M1698.16,1162.7v40.18a26.17,26.17,0,0,1-26.17,26.17h-6.06a41.43,41.43,0,0,1-35.31-19.72h-18.14a17.43,17.43,0,0,1,0-34.85h5.44a12.25,12.25,0,0,1,7.17,2.29l30.21-34.54C1674.5,1163.88,1698.16,1162.7,1698.16,1162.7Z" fill="#a74602"/><g id="FACE-2" data-name="FACE"><path d="M1621.59,1194.42a11.24,11.24,0,0,0-11.24-11.24" fill="none" stroke="#59221d" stroke-linecap="round" stroke-miterlimit="10" stroke-width="5"/><path d="M1696,1167.89s-10.28-1.13-17,6.51c-4.32,4.92-4.5,17,1.09,24.94" fill="none" stroke="#59221d" stroke-linecap="round" stroke-miterlimit="10" stroke-width="5"/><ellipse cx="1658.13" cy="1184.86" rx="3.14" ry="4.28" fill="#59221d"/><ellipse cx="1687.35" cy="1184.86" rx="3.14" ry="4.28" fill="#59221d"/><path d="M1679,1209.52s-11.65,3-13.1-5.37" fill="none" stroke="#59221d" stroke-linecap="round" stroke-miterlimit="10" stroke-width="5"/><path d="M1643.68,1172.11s8.84-6.86,20-4.7" fill="none" stroke="#59221d" stroke-linecap="round" stroke-miterlimit="10" stroke-width="5"/></g></g></g><g id="CHILD"><path id="SITTING" d="M1323.75,1322.44,1278.92,1523a76.53,76.53,0,0,1-71.08,59.75c-1.19,0-2.4.09-3.61.09H779.39a47.43,47.43,0,0,1-46.26-57.9L757,1419.57a124.63,124.63,0,0,1,121.55-97.13Z" fill="#7ebad2"/><g id="BODY-2" data-name="BODY"><path d="M821.15,1582.88c33-61.8,107.18-104.86,193.36-104.86s157,43,190.07,104.77Z" fill="#fff"/><path d="M1097.42,1492.44l-24.9,90.38,0,.06h-5.11v-.06l2.69-98.53A226.55,226.55,0,0,1,1097.42,1492.44Z" fill="#59221d"/></g><g id="HAND-2" data-name="HAND"><path d="M1205.06,1436.39v146.49H1072.29l40.89-146.49c0,8.44,20.4,15.28,45.58,15.28S1202.05,1444.27,1205.06,1436.39Z" fill="#fff"/><path d="M1205.06,1436.39c-3,7.88-21.13,15.28-46.3,15.28s-45.58-6.84-45.58-15.28v-63s7-2.71,15.63,7.94,15,6.86,18.94-2c4.41-9.82,20.58-57,43.3-57,18.47,0,16,36.59,14.94,47.34a.8.8,0,0,0,1.43.55c3.26-4.27,10.24-12.78,13.76-12.23C1225.87,1358.81,1206.5,1432.64,1205.06,1436.39Z" fill="#a74602"/><line x1="1184.95" y1="1326.18" x2="1168.32" y2="1378.48" fill="none" stroke="#59221d" stroke-linecap="round" stroke-miterlimit="10" stroke-width="5"/><line x1="1198" y1="1329.53" x2="1182.46" y2="1380.66" fill="none" stroke="#59221d" stroke-linecap="round" stroke-miterlimit="10" stroke-width="5"/><line x1="1206.51" y1="1370.48" x2="1202.54" y2="1382.45" fill="none" stroke="#59221d" stroke-linecap="round" stroke-miterlimit="10" stroke-width="5"/></g><g id="HEAD-5" data-name="HEAD"><g id="NECK-3" data-name="NECK"><path d="M975.29,1455.63h70.06a0,0,0,0,1,0,0v22.44a32.69,32.69,0,0,1-32.69,32.69H1008a32.69,32.69,0,0,1-32.69-32.69v-22.44A0,0,0,0,1,975.29,1455.63Z" fill="#a74602"/><path d="M975.29,1455.63h70.06v22.67a32.38,32.38,0,0,1-12,25.17l-37.3-16.15A34.53,34.53,0,0,1,975.29,1455.63Z" fill="#59221d"/></g><path id="HEAD-6" data-name="HEAD" d="M975.39,1437.35a3.18,3.18,0,0,0,3.17,3.18h1.71a3.18,3.18,0,0,0,3.18-3.18v-3.73a34.49,34.49,0,0,1,34.5-34.49h38.19l2.4,44.11a30.76,30.76,0,0,1-30.71,32.43h-21.27a30.74,30.74,0,0,1-26.09-14.47h-19.6a16.87,16.87,0,0,1-16.87-17,17.16,17.16,0,0,1,17.31-16.75h4.17a9.91,9.91,0,0,1,9.91,9.88Z" fill="#a74602"/><path id="HAIR-4" data-name="HAIR" d="M983.45,1437.35a3.18,3.18,0,0,1-3.18,3.18h-1.71a3.18,3.18,0,0,1-3.17-3.18,9.89,9.89,0,0,0-9.88-9.88l-2.28-16.34c0-13.88,9.95-25.13,22.22-25.13a19.87,19.87,0,0,1,6.72,1.17c2.07-11.65,11.78-20.48,23.45-20.48a22.93,22.93,0,0,1,14.59,5.26,27.31,27.31,0,0,1,26-19.4c15,0,27.22,12.46,27.22,27.84s-12.19,27.84-27.22,27.84a26.87,26.87,0,0,1-20.13-9.1H1018a34.47,34.47,0,0,0-34.47,33Z" fill="#ffc200"/><g id="FACE-3" data-name="FACE"><path d="M968.77,1442.86a8.94,8.94,0,0,0-8.8-7.44" fill="none" stroke="#59221d" stroke-linecap="round" stroke-miterlimit="10" stroke-width="5"/><path d="M1053.48,1418.49s-9.69-4.17-16.91,4.42c-4.22,5-6.26,17.62-2.17,23.85" fill="none" stroke="#59221d" stroke-linecap="round" stroke-miterlimit="10" stroke-width="5"/><ellipse cx="1014.58" cy="1434.46" rx="3.14" ry="4.28" fill="#59221d"/><ellipse cx="1043.79" cy="1434.46" rx="3.14" ry="4.28" fill="#59221d"/><path d="M1033.23,1458s-10.85,1.08-13.1-4.29" fill="none" stroke="#59221d" stroke-linecap="round" stroke-miterlimit="10" stroke-width="5"/><path d="M1001.21,1423.88s4.57-6.92,16.77-6.87" fill="none" stroke="#59221d" stroke-linecap="round" stroke-miterlimit="10" stroke-width="5"/></g></g></g></g><circle id="SUN" cx="3052.91" cy="152.52" r="149.52" fill="none" stroke="#ffc200" stroke-miterlimit="10" stroke-width="6"/></g></g></svg>